<svg xmlns="http://www.w3.org/2000/svg" version="1.1" xmlns:xlink="http://www.w3.org/1999/xlink" xmlns:svgjs="http://svgjs.dev/svgjs" width="1440" height="560" preserveAspectRatio="none" viewBox="0 0 1440 560"><g mask="url(&quot;#SvgjsMask2324&quot;)" fill="none"><rect width="1440" height="560" x="0" y="0" fill="url(&quot;#SvgjsLinearGradient2325&quot;)"></rect><path d="M13.73 241.12 a163.41 163.41 0 1 0 326.82 0 a163.41 163.41 0 1 0 -326.82 0z" fill="rgba(22, 101, 195, 0.53)" class="triangle-float1"></path><path d="M708.32 527.56 a171 171 0 1 0 342 0 a171 171 0 1 0 -342 0z" fill="rgba(22, 101, 195, 0.53)" class="triangle-float3"></path><path d="M76.474,514.986C99.116,515.482,120.727,505.576,133.182,486.661C147.067,465.575,153.286,438.71,141.345,416.466C128.854,393.197,102.868,380.103,76.474,381.024C51.53,381.894,30.319,398.493,18.995,420.735C8.666,441.023,12.059,464.829,23.912,484.266C35.236,502.835,54.729,514.51,76.474,514.986" fill="rgba(22, 101, 195, 0.53)" class="triangle-float3"></path><path d="M350.48 389.8 a98.45 98.45 0 1 0 196.9 0 a98.45 98.45 0 1 0 -196.9 0z" fill="rgba(22, 101, 195, 0.53)" class="triangle-float2"></path><path d="M-19.94 480.21 a96.81 96.81 0 1 0 193.62 0 a96.81 96.81 0 1 0 -193.62 0z" fill="rgba(22, 101, 195, 0.53)" class="triangle-float2"></path><path d="M1030.83 522.98 a153.73 153.73 0 1 0 307.46 0 a153.73 153.73 0 1 0 -307.46 0z" fill="rgba(22, 101, 195, 0.53)" class="triangle-float1"></path></g><defs><mask id="SvgjsMask2324"><rect width="1440" height="560" fill="#ffffff"></rect></mask><linearGradient x1="0%" y1="50%" x2="100%" y2="50%" gradientUnits="userSpaceOnUse" id="SvgjsLinearGradient2325"><stop stop-color="rgba(0, 69, 158, 1)" offset="0.62"></stop><stop stop-color="rgba(0, 69, 158, 1)" offset="0.72"></stop><stop stop-color="rgba(22, 101, 195, 1)" offset="0.94"></stop></linearGradient><style>
                @keyframes float1 {
                    0%{transform: translate(0, 0)}
                    50%{transform: translate(-10px, 0)}
                    100%{transform: translate(0, 0)}
                }

                .triangle-float1 {
                    animation: float1 5s infinite;
                }

                @keyframes float2 {
                    0%{transform: translate(0, 0)}
                    50%{transform: translate(-5px, -5px)}
                    100%{transform: translate(0, 0)}
                }

                .triangle-float2 {
                    animation: float2 4s infinite;
                }

                @keyframes float3 {
                    0%{transform: translate(0, 0)}
                    50%{transform: translate(0, -10px)}
                    100%{transform: translate(0, 0)}
                }

                .triangle-float3 {
                    animation: float3 6s infinite;
                }
            </style></defs></svg>