<svg xmlns="http://www.w3.org/2000/svg" version="1.1" xmlns:xlink="http://www.w3.org/1999/xlink" xmlns:svgjs="http://svgjs.com/svgjs" width="1000" height="770" preserveAspectRatio="none" viewBox="0 0 1000 770"><g mask="url(&quot;#SvgjsMask1221&quot;)" fill="none"><rect width="1000" height="770" x="0" y="0" fill="url(#SvgjsLinearGradient1222)"></rect><path d="M266.488,774.726C314.336,774.25,355.791,743.781,378.869,701.864C401.11,661.467,400.164,613.047,377.665,572.793C354.578,531.486,313.741,498.263,266.488,500.795C222.229,503.166,196.199,545.222,174.192,583.694C152.405,621.781,131.081,664.629,150.169,704.137C171.316,747.906,217.88,775.209,266.488,774.726" fill="rgba(28, 83, 142, 0.4)" class="triangle-float1"></path><path d="M905.577,472.816C938.39,472.751,969.556,459.08,987.736,431.763C1008.229,400.971,1019.167,361.452,1001.213,329.114C982.859,296.055,943.343,281.924,905.577,283.78C870.95,285.482,841.836,307.501,824.948,337.778C808.53,367.212,805.572,403.155,822.85,432.092C839.738,460.376,872.635,472.882,905.577,472.816" fill="rgba(28, 83, 142, 0.4)" class="triangle-float3"></path><path d="M191.682,213.29C225.766,214.897,265.358,212.816,282.333,183.216C299.262,153.696,281.284,118.353,262.337,90.086C245.975,65.676,221.037,49.315,191.682,47.975C159.588,46.51,125.51,55.584,108.892,83.079C91.814,111.336,97.005,147.45,114.72,175.312C131.171,201.186,161.055,211.846,191.682,213.29" fill="rgba(28, 83, 142, 0.4)" class="triangle-float1"></path><path d="M621.22,500.78C688.852,503.651,762.713,494.035,799.779,437.392C839.727,376.345,833.965,295.701,796.31,233.214C759.827,172.672,691.785,136.967,621.22,141.083C556.738,144.844,509.222,195.076,478.264,251.766C448.835,305.656,436.55,370.02,467.121,423.271C497.803,476.716,559.649,498.166,621.22,500.78" fill="rgba(28, 83, 142, 0.4)" class="triangle-float1"></path><path d="M703.107,787.61C757.607,787.395,794.318,738.043,820.574,690.285C845.608,644.75,859.347,592.153,836.117,545.672C810.429,494.272,760.565,455.957,703.107,455.242C644.557,454.513,590.615,490.011,564.234,542.287C540.051,590.207,557.578,644.509,584.02,691.22C610.984,738.854,648.371,787.826,703.107,787.61" fill="rgba(28, 83, 142, 0.4)" class="triangle-float1"></path><path d="M-96.34 755.85 a256.43 256.43 0 1 0 512.86 0 a256.43 256.43 0 1 0 -512.86 0z" fill="rgba(28, 83, 142, 0.4)" class="triangle-float2"></path><path d="M466.15,328.254C506.078,330.108,546.167,314.686,567.51,280.89C590.278,244.839,593.198,198.25,571.396,161.606C550.026,125.688,507.911,108.849,466.15,110.529C427.275,112.092,392.931,135.196,374.613,169.52C357.322,201.919,361.535,240.364,379.881,272.177C398.245,304.021,429.43,326.549,466.15,328.254" fill="rgba(28, 83, 142, 0.4)" class="triangle-float2"></path><path d="M-53.47 44.13 a170.6 170.6 0 1 0 341.2 0 a170.6 170.6 0 1 0 -341.2 0z" fill="rgba(28, 83, 142, 0.4)" class="triangle-float3"></path><path d="M258.835,183.814C298.976,184.88,340.354,172.542,361.706,138.534C384.295,102.556,385.463,54.987,361.922,19.624C340.329,-12.812,297.801,-15.878,258.835,-15.993C219.582,-16.108,175.577,-14.221,154.692,19.015C132.877,53.73,143.11,98.651,165.013,133.31C185.349,165.49,220.781,182.803,258.835,183.814" fill="rgba(28, 83, 142, 0.4)" class="triangle-float2"></path><path d="M628.241,378.484C649.343,377.906,666.846,364.085,677.511,345.867C688.307,327.427,692.632,304.916,682.242,286.244C671.601,267.121,650.071,255.786,628.241,257.328C608.532,258.72,596.093,276.047,586.016,293.042C575.643,310.537,565.051,330.467,574.062,348.701C583.848,368.503,606.161,379.089,628.241,378.484" fill="rgba(28, 83, 142, 0.4)" class="triangle-float2"></path><path d="M275.98 20 a216.11 216.11 0 1 0 432.22 0 a216.11 216.11 0 1 0 -432.22 0z" fill="rgba(28, 83, 142, 0.4)" class="triangle-float2"></path></g><defs><mask id="SvgjsMask1221"><rect width="1000" height="770" fill="#ffffff"></rect></mask><linearGradient x1="5.75%" y1="-7.47%" x2="94.25%" y2="107.47%" gradientUnits="userSpaceOnUse" id="SvgjsLinearGradient1222"><stop stop-color="#0e2a47" offset="0"></stop><stop stop-color="#00459e" offset="1"></stop></linearGradient><style>
            @keyframes float1 {
                0%{transform: translate(0, 0)}
                50%{transform: translate(-10px, 0)}
                100%{transform: translate(0, 0)}
            }

            .triangle-float1 {
                animation: float1 5s infinite;
            }

            @keyframes float2 {
                0%{transform: translate(0, 0)}
                50%{transform: translate(-5px, -5px)}
                100%{transform: translate(0, 0)}
            }

            .triangle-float2 {
                animation: float2 4s infinite;
            }

            @keyframes float3 {
                0%{transform: translate(0, 0)}
                50%{transform: translate(0, -10px)}
                100%{transform: translate(0, 0)}
            }

            .triangle-float3 {
                animation: float3 6s infinite;
            }
        </style></defs></svg>