<?xml version="1.0" encoding="utf-8"?><svg xmlns="http://www.w3.org/2000/svg" xmlns:xlink="http://www.w3.org/1999/xlink" width="1366" height="568" preserveAspectRatio="xMidYMid" viewBox="0 0 1366 568" style="z-index:1;margin-right:-2px;display:block;background-repeat-y:initial;background-repeat-x:initial;background-color:rgb(241, 242, 243);animation-play-state:paused" ><g transform="translate(683,284) scale(1,1) translate(-683,-284)" style="transform:matrix(1, 0, 0, 1, 0, 0);animation-play-state:paused" ><g transform="translate(1006.805524071558,32.83068941301025) scale(100)" opacity="0.55" style="transform:matrix(100, 0, 0, 100, 1006.81, 32.8307);opacity:0.55;animation-play-state:paused" ><path d="M3.667710000000001 0 C3.667710000000001 1.5572400000000004 4.700234175703037 0.9155356002107204 3.921614175703037 2.264145 S3.1824643997892803 2.3977100337142234 1.833855000000001 3.176330033714224 S1.5572400000000006 4.528290000000001 2.7727779270554845e-16 4.528290000000001 S-0.48524560021071994 3.9549500337142245 -1.8338549999999996 3.1763300337142244 S-3.142994175703035 3.6127543997892815 -3.921614175703036 2.264145000000002 S-3.667710000000001 1.5572400000000008 -3.667710000000001 4.49164931170074e-16 S-4.700234175703037 -0.9155356002107193 -3.9216141757030374 -2.264144999999999 S-3.182464399789281 -2.3977100337142225 -1.833855000000002 -3.1763300337142235 S-1.5572400000000013 -4.528290000000001 -8.318333781166453e-16 -4.528290000000001 S0.4852456002107177 -3.954950033714225 1.833854999999998 -3.1763300337142257 S3.142994175703034 -3.612754399789282 3.921614175703035 -2.2641450000000027 S3.6677100000000005 -1.5572400000000013 3.667710000000001 -8.98329862340148e-16" fill="#93dbe9" stroke-width="0" transform="matrix(1,0,0,1,0,0)" style="transform:matrix(1, 0, 0, 1, 0, 0);animation-play-state:paused" ></path></g>
<g transform="translate(1071.5666288858695,-17.403172704387714) scale(100)" opacity="0.55" style="transform:matrix(100, 0, 0, 100, 1071.57, -17.4032);opacity:0.55;animation-play-state:paused" ><path d="M4.401252 0 C4.401252 1.8686880000000001 5.640281010843643 1.0986427202528644 4.705937010843643 2.7169739999999996 S3.818957279747136 2.877252040457068 2.2006260000000006 3.811596040457068 S1.8686880000000003 5.433948 3.3273335124665806e-16 5.433948 S-0.5822947202528641 4.745940040457068 -2.2006259999999993 3.8115960404570686 S-3.7715930108436413 4.3353052797471365 -4.705937010843642 2.7169740000000018 S-4.401252 1.8686880000000006 -4.401252 5.389979174040887e-16 S-5.640281010843643 -1.0986427202528632 -4.705937010843644 -2.7169739999999987 S-3.8189572797471367 -2.877252040457067 -2.200626000000002 -3.8115960404570677 S-1.868688000000001 -5.433948 -9.98200053739974e-16 -5.433948 S0.5822947202528612 -4.745940040457069 2.200625999999997 -3.8115960404570703 S3.7715930108436404 -4.335305279747137 4.705937010843641 -2.716974000000002 S4.4012519999999995 -1.8686880000000012 4.401252 -1.0779958348081774e-15" fill="#4492b9" stroke-width="0" transform="matrix(1,0,0,1,0,0)" style="transform:matrix(1, 0, 0, 1, 0, 0);animation-play-state:paused" ></path></g>
<g transform="translate(1226.9932804402174,-137.96444178614274) scale(100)" opacity="0.55" style="transform:matrix(100, 0, 0, 100, 1226.99, -137.964);opacity:0.55;animation-play-state:paused" ><path d="M6.161752800000001 0 C6.161752800000001 2.6161632000000004 7.896393415181102 1.5380998083540103 6.588311815181101 3.8037636 S5.346540191645991 4.028152856639895 3.0808764000000015 5.336234456639896 S2.616163200000001 7.607527200000001 4.658266917453213e-16 7.607527200000001 S-0.8152126083540097 6.644316056639896 -3.0808763999999993 5.336234456639897 S-5.280230215181098 6.069427391645992 -6.5883118151810995 3.803763600000003 S-6.161752800000001 2.6161632000000012 -6.161752800000001 7.545970843657243e-16 S-7.896393415181102 -1.538099808354008 -6.588311815181102 -3.803763599999998 S-5.3465401916459925 -4.0281528566398945 -3.0808764000000033 -5.336234456639896 S-2.6161632000000017 -7.6075272 -1.397480075235964e-15 -7.607527200000001 S0.8152126083540061 -6.644316056639898 3.0808763999999966 -5.336234456639899 S5.280230215181097 -6.069427391645993 6.588311815181099 -3.803763600000004 S6.1617528 -2.6161632000000017 6.161752800000001 -1.5091941687314486e-15" fill="#004b86" stroke-width="0" transform="matrix(1,0,0,1,0,0)" style="transform:matrix(1, 0, 0, 1, 0, 0);animation-play-state:paused" ></path></g></g></svg>