<svg xmlns="http://www.w3.org/2000/svg" version="1.1" xmlns:xlink="http://www.w3.org/1999/xlink" xmlns:svgjs="http://svgjs.com/svgjs" width="1440" height="570" preserveAspectRatio="none" viewBox="0 0 1440 570"><g mask="url(&quot;#SvgjsMask1017&quot;)" fill="none"><rect width="1440" height="570" x="0" y="0" fill="#0e2a47"></rect><path d="M1312.138,304.392C1332.312,304.558,1352.316,296.596,1362.737,279.321C1373.481,261.51,1373.571,238.636,1362.385,221.099C1351.914,204.684,1331.605,199.659,1312.138,199.997C1293.378,200.323,1274.786,206.891,1264.825,222.792C1254.253,239.668,1252.973,261.272,1262.962,278.5C1272.922,295.677,1292.283,304.229,1312.138,304.392" fill="rgba(28, 83, 142, 0.4)" class="triangle-float1"></path><path d="M220.382,741.139C266.176,740.22,302.193,704.55,322.343,663.417C340.114,627.141,333.44,585.916,313.683,550.683C293.396,514.505,261.853,482.354,220.382,481.591C177.838,480.808,142.49,510.447,120.938,547.136C99.056,584.385,91.376,629.21,111.082,667.655C132.546,709.528,173.337,742.083,220.382,741.139" fill="rgba(28, 83, 142, 0.4)" class="triangle-float2"></path><path d="M0.948,558.92C28.47,558.901,44.347,530.13,56.294,505.336C66.367,484.432,69.076,460.831,58.054,440.412C46.45,418.915,25.366,403.521,0.948,402.804C-24.7,402.051,-50.071,414.309,-62.275,436.88C-73.994,458.555,-65.866,483.535,-54.532,505.413C-41.865,529.864,-26.589,558.939,0.948,558.92" fill="rgba(28, 83, 142, 0.4)" class="triangle-float2"></path><path d="M1022.397,478.059C1085.414,480.732,1138.68,435.448,1169.477,380.404C1199.494,326.754,1204.842,261.131,1173.285,208.373C1142.476,156.865,1082.414,135.044,1022.397,134.513C961.277,133.972,895.929,151.92,866.808,205.659C838.618,257.681,866.104,317.402,895.45,368.781C925.131,420.745,962.608,475.523,1022.397,478.059" fill="rgba(28, 83, 142, 0.4)" class="triangle-float2"></path><path d="M1475.068,399.932C1529.281,403.493,1591.123,394.864,1617.836,347.555C1644.292,300.7,1618.718,244.105,1587.997,199.929C1562.133,162.736,1520.256,145.473,1475.068,142.257C1421.634,138.454,1358.034,135.714,1330.379,181.592C1302.283,228.201,1331.404,285.351,1361.467,330.716C1387.72,370.333,1427.644,396.817,1475.068,399.932" fill="rgba(28, 83, 142, 0.4)" class="triangle-float3"></path><path d="M156.464,26.17C175.465,26.418,194.213,17.08,202.858,0.157C210.911,-15.606,203.695,-33.458,194.72,-48.715C185.914,-63.684,173.829,-78.475,156.464,-78.709C138.803,-78.947,125.136,-65.111,116.379,-49.771C107.712,-34.589,103.956,-16.485,112.117,-1.025C120.792,15.411,137.881,25.928,156.464,26.17" fill="rgba(28, 83, 142, 0.4)" class="triangle-float3"></path><path d="M1396.764,638.528C1449.671,635.788,1486.56,593.12,1514.109,547.868C1543.236,500.026,1572.929,443.081,1545.475,394.26C1517.705,344.878,1453.35,336.404,1396.764,339.196C1345.795,341.711,1298.75,364.653,1271.466,407.778C1242.013,454.33,1230.006,512.81,1256.293,561.22C1283.628,611.561,1339.557,641.491,1396.764,638.528" fill="rgba(28, 83, 142, 0.4)" class="triangle-float1"></path><path d="M1282.416,592.656C1319.879,592.572,1343.161,557.193,1362.748,525.258C1383.713,491.077,1407.172,452.949,1390.462,416.499C1371.575,375.302,1327.733,349.478,1282.416,350.032C1237.949,350.576,1197.473,378.702,1178.853,419.086C1162.562,454.419,1181.522,492.208,1201.458,525.62C1220.699,557.868,1244.864,592.74,1282.416,592.656" fill="rgba(28, 83, 142, 0.4)" class="triangle-float3"></path><path d="M853.046,599.378C878.328,599.319,901.765,586.101,914.478,564.248C927.265,542.269,928.206,514.738,914.889,493.076C902.128,472.319,877.371,462.904,853.046,464.32C831.067,465.6,814.108,480.889,802.535,499.618C790.156,519.651,780.48,543.526,791.118,564.535C802.586,587.183,827.66,599.437,853.046,599.378" fill="rgba(28, 83, 142, 0.4)" class="triangle-float3"></path><path d="M999.1,456.79C1048.507,456.084,1103.671,451.516,1128.898,409.029C1154.475,365.952,1136.822,312.373,1109.958,270.086C1085.303,231.275,1045.077,205.233,999.1,204.71C952.191,204.176,909.496,228.274,883.783,267.511C855.028,311.39,835.418,368.032,862.713,412.833C889.349,456.553,947.91,457.522,999.1,456.79" fill="rgba(28, 83, 142, 0.4)" class="triangle-float3"></path><path d="M296.051,304.385C312.141,304.872,326.183,293.625,333.453,279.263C340.081,266.169,336.111,251.462,329.462,238.379C321.893,223.487,312.749,206.142,296.051,205.669C278.916,205.184,266.503,220.883,259.194,236.389C252.972,249.589,255.424,264.281,262.378,277.11C269.756,290.721,280.576,303.916,296.051,304.385" fill="rgba(28, 83, 142, 0.4)" class="triangle-float1"></path></g><defs><mask id="SvgjsMask1017"><rect width="1440" height="570" fill="#ffffff"></rect></mask><style>
            @keyframes float1 {
                0%{transform: translate(0, 0)}
                50%{transform: translate(-10px, 0)}
                100%{transform: translate(0, 0)}
            }

            .triangle-float1 {
                animation: float1 5s infinite;
            }

            @keyframes float2 {
                0%{transform: translate(0, 0)}
                50%{transform: translate(-5px, -5px)}
                100%{transform: translate(0, 0)}
            }

            .triangle-float2 {
                animation: float2 4s infinite;
            }

            @keyframes float3 {
                0%{transform: translate(0, 0)}
                50%{transform: translate(0, -10px)}
                100%{transform: translate(0, 0)}
            }

            .triangle-float3 {
                animation: float3 6s infinite;
            }
        </style></defs></svg>