<svg xmlns="http://www.w3.org/2000/svg" version="1.1" xmlns:xlink="http://www.w3.org/1999/xlink" xmlns:svgjs="http://svgjs.com/svgjs" width="1440" height="560" preserveAspectRatio="none" viewBox="0 0 1440 560"><g mask="url(&quot;#SvgjsMask1027&quot;)" fill="none"><rect width="1440" height="560" x="0" y="0" fill="#0e2a47"></rect><path d="M1219.043,195.365C1266.046,193.982,1307.461,164.33,1328.505,122.279C1347.587,84.149,1338.015,39.571,1314.956,3.706C1293.906,-29.035,1257.956,-48.885,1219.043,-47.974C1181.657,-47.098,1151.737,-22.832,1130.61,8.024C1105.299,44.991,1078.702,88.55,1097.827,129.065C1118.898,173.703,1169.703,196.817,1219.043,195.365" fill="rgba(28, 83, 142, 0.4)" class="triangle-float2"></path><path d="M726.105,204.015C745.283,203.859,764.972,196.859,774.119,180.002C782.947,163.732,775.851,144.93,766.981,128.682C757.585,111.471,745.686,93.098,726.105,92.053C705.201,90.937,687.083,105.582,676.903,123.874C667.014,141.644,666.08,163.464,676.72,180.794C686.921,197.409,706.609,204.174,726.105,204.015" fill="rgba(28, 83, 142, 0.4)" class="triangle-float1"></path><path d="M311.915,131.652C343.102,132.062,370.483,112.801,386.266,85.899C402.257,58.642,406.505,24.851,390.59,-2.451C374.775,-29.581,343.288,-43.012,311.915,-41.646C282.806,-40.378,258.618,-21.441,244.276,3.922C230.182,28.845,227.471,58.687,240.87,83.99C255.173,111.001,281.354,131.251,311.915,131.652" fill="rgba(28, 83, 142, 0.4)" class="triangle-float1"></path><path d="M834.907,361.575C890.251,361.02,945.287,337.773,971.904,289.246C997.688,242.239,986.904,184.103,956.455,139.975C929.843,101.408,881.756,91.552,834.907,90.702C785.99,89.815,733.65,95.426,705.473,135.422C673.146,181.309,665.18,243.329,693.062,292.045C721.096,341.027,778.473,362.141,834.907,361.575" fill="rgba(28, 83, 142, 0.4)" class="triangle-float3"></path><path d="M1181.7 511.81 a151.71 151.71 0 1 0 303.42 0 a151.71 151.71 0 1 0 -303.42 0z" fill="rgba(28, 83, 142, 0.4)" class="triangle-float2"></path><path d="M652.407,402.891C691.833,404.53,736.325,398.328,755.781,363.998C775.075,329.954,757.151,288.932,735.447,256.372C716.495,227.94,686.517,210.933,652.407,208.914C613.768,206.627,570.52,212.354,550.4,245.421C529.737,279.38,541.309,322.617,562.921,355.98C582.546,386.276,616.341,401.391,652.407,402.891" fill="rgba(28, 83, 142, 0.4)" class="triangle-float3"></path></g><defs><mask id="SvgjsMask1027"><rect width="1440" height="560" fill="#ffffff"></rect></mask><style>
            @keyframes float1 {
                0%{transform: translate(0, 0)}
                50%{transform: translate(-10px, 0)}
                100%{transform: translate(0, 0)}
            }

            .triangle-float1 {
                animation: float1 5s infinite;
            }

            @keyframes float2 {
                0%{transform: translate(0, 0)}
                50%{transform: translate(-5px, -5px)}
                100%{transform: translate(0, 0)}
            }

            .triangle-float2 {
                animation: float2 4s infinite;
            }

            @keyframes float3 {
                0%{transform: translate(0, 0)}
                50%{transform: translate(0, -10px)}
                100%{transform: translate(0, 0)}
            }

            .triangle-float3 {
                animation: float3 6s infinite;
            }
        </style></defs></svg>