<?xml version="1.0" encoding="utf-8"?><svg xmlns="http://www.w3.org/2000/svg" xmlns:xlink="http://www.w3.org/1999/xlink" width="1366" height="568" preserveAspectRatio="xMidYMid" viewBox="0 0 1366 568" style="z-index:1;margin-right:-2px;display:block;background-repeat-y:initial;background-repeat-x:initial;background-color:rgb(255, 255, 255);animation-play-state:paused" ><g transform="translate(683,284) scale(1,1) translate(-683,-284)" style="transform:matrix(1, 0, 0, 1, 0, 0);animation-play-state:paused" ><g transform="translate(168.90274784341125,98.91360037797284) scale(100)" opacity="0.4" style="transform:matrix(100, 0, 0, 100, 168.903, 98.9136);opacity:0.4;animation-play-state:paused" ><path d="M2.7319999999999998 0 C2.7319999999999998 3.6062399999999992 -8.196 3.60624 -8.196 1.0037205165811707e-15 S2.731999999999999 -3.60624 2.7319999999999998 -6.691470110541137e-16" fill="#004bff" stroke-width="0" transform="matrix(1,0,0,1,0,0)" style="transform:matrix(1, 0, 0, 1, 0, 0);animation-play-state:paused" ></path></g>
<g transform="translate(66.08329741209354,61.8963204535674) scale(100)" opacity="0.4" style="transform:matrix(100, 0, 0, 100, 66.0833, 61.8963);opacity:0.4;animation-play-state:paused" ><path d="M3.2783999999999995 0 C3.2783999999999995 4.327487999999999 -9.835199999999999 4.327488 -9.835199999999999 1.2044646198974047e-15 S3.2783999999999986 -4.327488 3.2783999999999995 -8.029764132649365e-16" fill="#0046dc" stroke-width="0" transform="matrix(1,0,0,1,0,0)" style="transform:matrix(1, 0, 0, 1, 0, 0);animation-play-state:paused" ></path></g>
<g transform="translate(-180.68338362306906,-26.945151365005586) scale(100)" opacity="0.4" style="transform:matrix(100, 0, 0, 100, -180.683, -26.9452);opacity:0.4;animation-play-state:paused" ><path d="M4.589759999999999 0 C4.589759999999999 6.058483199999998 -13.769279999999998 6.0584831999999995 -13.769279999999998 1.6862504678563666e-15 S4.589759999999997 -6.058483199999999 4.589759999999999 -1.124166978570911e-15" fill="#0040b9" stroke-width="0" transform="matrix(1,0,0,1,0,0)" style="transform:matrix(1, 0, 0, 1, 0, 0);animation-play-state:paused" ></path></g></g></svg>