<?xml version="1.0" encoding="utf-8"?><svg xmlns="http://www.w3.org/2000/svg" xmlns:xlink="http://www.w3.org/1999/xlink" width="1366" height="568" preserveAspectRatio="xMidYMid" viewBox="0 0 1366 568" style="z-index:1;margin-right:-2px;display:block;background-repeat-y:initial;background-repeat-x:initial;background-color:rgb(255, 255, 255);animation-play-state:paused" ><g transform="translate(683,284) scale(1,1) translate(-683,-284)" style="transform:matrix(1, 0, 0, 1, 0, 0);animation-play-state:paused" ><g transform="translate(887.9,284) scale(100)" opacity="0.4" style="transform:matrix(100, 0, 0, 100, 887.9, 284);opacity:0.4;animation-play-state:paused" ><path d="M1.8441 0 C1.8441 0.71715 1.7480201183240105 1.5933596575897462 1.1269500000000003 1.9519346575897463 S-0.30097988167598944 1.9556124471188834 -0.9220499999999996 1.5970374471188835 S-2.2539000000000002 0.7171500000000002 -2.2539000000000002 2.7602314205982195e-16 S-1.5431201183240109 -1.2384624471188828 -0.9220500000000008 -1.597037447118883 S0.5058798816759882 -2.310509657589747 1.1269499999999986 -1.9519346575897474 S1.8440999999999999 -0.7171500000000004 1.8441 -4.516742324615268e-16" fill="#1b2f45" stroke-width="0" transform="matrix(1,0,0,1,0,0)" style="transform:matrix(1, 0, 0, 1, 0, 0);animation-play-state:paused" ></path></g>
<g transform="translate(928.88,284) scale(100)" opacity="0.4" style="transform:matrix(100, 0, 0, 100, 928.88, 284);opacity:0.4;animation-play-state:paused" ><path d="M2.21292 0 C2.21292 0.86058 2.0976241419888124 1.9120315891076956 1.3523400000000003 2.3423215891076956 S-0.36117585801118723 2.34673493654266 -1.1064599999999996 1.9164449365426601 S-2.70468 0.8605800000000003 -2.70468 3.3122777047178637e-16 S-1.851744141988813 -1.4861549365426594 -1.1064600000000009 -1.9164449365426597 S0.6070558580111858 -2.7726115891076963 1.3523399999999983 -2.342321589107697 S2.21292 -0.8605800000000006 2.21292 -5.420090789538322e-16" fill="#002f69" stroke-width="0" transform="matrix(1,0,0,1,0,0)" style="transform:matrix(1, 0, 0, 1, 0, 0);animation-play-state:paused" ></path></g>
<g transform="translate(1027.232,284) scale(100)" opacity="0.4" style="transform:matrix(100, 0, 0, 100, 1027.23, 284);opacity:0.4;animation-play-state:paused" ><path d="M3.0980879999999997 0 C3.0980879999999997 1.2048119999999998 2.936673798784337 2.6768442247507735 1.8932760000000004 3.2792502247507733 S-0.5056462012156622 3.2854289111597237 -1.5490439999999992 2.683022911159724 S-3.786552 1.2048120000000002 -3.786552 4.637188786605008e-16 S-2.5924417987843382 -2.080616911159723 -1.5490440000000012 -2.683022911159723 S0.84987820121566 -3.881656224750774 1.8932759999999975 -3.279250224750775 S3.0980879999999993 -1.2048120000000004 3.0980879999999997 -7.58812710535365e-16" fill="#002a8b" stroke-width="0" transform="matrix(1,0,0,1,0,0)" style="transform:matrix(1, 0, 0, 1, 0, 0);animation-play-state:paused" ></path></g>
<g transform="translate(1233.7712000000001,284) scale(100)" opacity="0.4" style="transform:matrix(100, 0, 0, 100, 1233.77, 284);opacity:0.4;animation-play-state:paused" ><path d="M4.956940800000001 0 C4.956940800000001 1.9276992000000002 4.698678078054941 4.282950759601238 3.0292416000000015 5.246800359601239 S-0.80903392194506 5.256686257855559 -2.4784703999999995 4.29283665785556 S-6.058483200000001 1.9276992000000008 -6.058483200000001 7.419502058568016e-16 S-4.1479068780549415 -3.328987057855557 -2.4784704000000026 -4.292836657855558 S1.3598051219450564 -6.21064995960124 3.0292415999999966 -5.246800359601242 S4.9569408 -1.9276992000000013 4.956940800000001 -1.2141003368565842e-15" fill="#0018a6" stroke-width="0" transform="matrix(1,0,0,1,0,0)" style="transform:matrix(1, 0, 0, 1, 0, 0);animation-play-state:paused" ></path></g></g></svg>