<svg xmlns="http://www.w3.org/2000/svg" version="1.1" xmlns:xlink="http://www.w3.org/1999/xlink" xmlns:svgjs="http://svgjs.com/svgjs" width="1440" height="560" preserveAspectRatio="none" viewBox="0 0 1440 560"><g mask="url(&quot;#SvgjsMask1003&quot;)" fill="none"><rect width="1440" height="560" x="0" y="0" fill="rgba(27, 47, 69, 1)"></rect><path d="M71.01 412.42L135.96 449.92L135.96 524.92L71.01 562.42L6.06 524.92L6.06 449.92zM265.87 74.92L330.82 112.42L330.82 187.42L265.87 224.92L200.92 187.42L200.92 112.42zM395.78 74.92L460.73 112.42L460.73 187.42L395.78 224.92L330.82 187.42L330.82 112.42zM330.82 187.42L395.78 224.92L395.78 299.92L330.82 337.42L265.87 299.92L265.87 224.92zM460.73 -37.58L525.69 -0.08L525.69 74.92L460.73 112.42L395.78 74.92L395.78 -0.08zM460.73 187.42L525.69 224.92L525.69 299.92L460.73 337.42L395.78 299.92L395.78 224.92zM460.73 412.42L525.69 449.92L525.69 524.92L460.73 562.42L395.78 524.92L395.78 449.92zM655.59 524.92L720.55 562.42L720.55 637.42L655.59 674.92L590.64 637.42L590.64 562.42zM785.5 74.92L850.46 112.42L850.46 187.42L785.5 224.92L720.55 187.42L720.55 112.42zM785.5 299.92L850.46 337.42L850.46 412.42L785.5 449.92L720.55 412.42L720.55 337.42zM785.5 524.92L850.46 562.42L850.46 637.42L785.5 674.92L720.55 637.42L720.55 562.42zM915.41 74.92L980.36 112.42L980.36 187.42L915.41 224.92L850.45 187.42L850.45 112.42zM850.45 412.42L915.41 449.92L915.41 524.92L850.45 562.42L785.5 524.92L785.5 449.92zM1045.32 74.92L1110.27 112.42L1110.27 187.42L1045.32 224.92L980.36 187.42L980.36 112.42zM1175.22 74.92L1240.18 112.42L1240.18 187.42L1175.22 224.92L1110.27 187.42L1110.27 112.42zM1175.22 299.92L1240.18 337.42L1240.18 412.42L1175.22 449.92L1110.27 412.42L1110.27 337.42zM1240.18 187.42L1305.13 224.92L1305.13 299.92L1240.18 337.42L1175.22 299.92L1175.22 224.92zM1435.04 74.92L1499.99 112.42L1499.99 187.42L1435.04 224.92L1370.09 187.42L1370.09 112.42z" stroke="rgba(1, 67, 132, 1)" stroke-width="2"></path><path d="M63.51 412.42 a7.5 7.5 0 1 0 15 0 a7.5 7.5 0 1 0 -15 0zM128.46 449.92 a7.5 7.5 0 1 0 15 0 a7.5 7.5 0 1 0 -15 0zM128.46 524.92 a7.5 7.5 0 1 0 15 0 a7.5 7.5 0 1 0 -15 0zM63.51 562.42 a7.5 7.5 0 1 0 15 0 a7.5 7.5 0 1 0 -15 0zM-1.44 524.92 a7.5 7.5 0 1 0 15 0 a7.5 7.5 0 1 0 -15 0zM-1.44 449.92 a7.5 7.5 0 1 0 15 0 a7.5 7.5 0 1 0 -15 0zM258.37 74.92 a7.5 7.5 0 1 0 15 0 a7.5 7.5 0 1 0 -15 0zM323.32 112.42 a7.5 7.5 0 1 0 15 0 a7.5 7.5 0 1 0 -15 0zM323.32 187.42 a7.5 7.5 0 1 0 15 0 a7.5 7.5 0 1 0 -15 0zM258.37 224.92 a7.5 7.5 0 1 0 15 0 a7.5 7.5 0 1 0 -15 0zM193.42 187.42 a7.5 7.5 0 1 0 15 0 a7.5 7.5 0 1 0 -15 0zM193.42 112.42 a7.5 7.5 0 1 0 15 0 a7.5 7.5 0 1 0 -15 0zM388.28 74.92 a7.5 7.5 0 1 0 15 0 a7.5 7.5 0 1 0 -15 0zM453.23 112.42 a7.5 7.5 0 1 0 15 0 a7.5 7.5 0 1 0 -15 0zM453.23 187.42 a7.5 7.5 0 1 0 15 0 a7.5 7.5 0 1 0 -15 0zM388.28 224.92 a7.5 7.5 0 1 0 15 0 a7.5 7.5 0 1 0 -15 0zM388.28 299.92 a7.5 7.5 0 1 0 15 0 a7.5 7.5 0 1 0 -15 0zM323.32 337.42 a7.5 7.5 0 1 0 15 0 a7.5 7.5 0 1 0 -15 0zM258.37 299.92 a7.5 7.5 0 1 0 15 0 a7.5 7.5 0 1 0 -15 0zM453.23 -37.58 a7.5 7.5 0 1 0 15 0 a7.5 7.5 0 1 0 -15 0zM518.19 -0.08 a7.5 7.5 0 1 0 15 0 a7.5 7.5 0 1 0 -15 0zM518.19 74.92 a7.5 7.5 0 1 0 15 0 a7.5 7.5 0 1 0 -15 0zM388.28 -0.08 a7.5 7.5 0 1 0 15 0 a7.5 7.5 0 1 0 -15 0zM518.19 224.92 a7.5 7.5 0 1 0 15 0 a7.5 7.5 0 1 0 -15 0zM518.19 299.92 a7.5 7.5 0 1 0 15 0 a7.5 7.5 0 1 0 -15 0zM453.23 337.42 a7.5 7.5 0 1 0 15 0 a7.5 7.5 0 1 0 -15 0zM453.23 412.42 a7.5 7.5 0 1 0 15 0 a7.5 7.5 0 1 0 -15 0zM518.19 449.92 a7.5 7.5 0 1 0 15 0 a7.5 7.5 0 1 0 -15 0zM518.19 524.92 a7.5 7.5 0 1 0 15 0 a7.5 7.5 0 1 0 -15 0zM453.23 562.42 a7.5 7.5 0 1 0 15 0 a7.5 7.5 0 1 0 -15 0zM388.28 524.92 a7.5 7.5 0 1 0 15 0 a7.5 7.5 0 1 0 -15 0zM388.28 449.92 a7.5 7.5 0 1 0 15 0 a7.5 7.5 0 1 0 -15 0zM648.09 524.92 a7.5 7.5 0 1 0 15 0 a7.5 7.5 0 1 0 -15 0zM713.05 562.42 a7.5 7.5 0 1 0 15 0 a7.5 7.5 0 1 0 -15 0zM713.05 637.42 a7.5 7.5 0 1 0 15 0 a7.5 7.5 0 1 0 -15 0zM648.09 674.92 a7.5 7.5 0 1 0 15 0 a7.5 7.5 0 1 0 -15 0zM583.14 637.42 a7.5 7.5 0 1 0 15 0 a7.5 7.5 0 1 0 -15 0zM583.14 562.42 a7.5 7.5 0 1 0 15 0 a7.5 7.5 0 1 0 -15 0zM778 74.92 a7.5 7.5 0 1 0 15 0 a7.5 7.5 0 1 0 -15 0zM842.96 112.42 a7.5 7.5 0 1 0 15 0 a7.5 7.5 0 1 0 -15 0zM842.96 187.42 a7.5 7.5 0 1 0 15 0 a7.5 7.5 0 1 0 -15 0zM778 224.92 a7.5 7.5 0 1 0 15 0 a7.5 7.5 0 1 0 -15 0zM713.05 187.42 a7.5 7.5 0 1 0 15 0 a7.5 7.5 0 1 0 -15 0zM713.05 112.42 a7.5 7.5 0 1 0 15 0 a7.5 7.5 0 1 0 -15 0zM778 299.92 a7.5 7.5 0 1 0 15 0 a7.5 7.5 0 1 0 -15 0zM842.96 337.42 a7.5 7.5 0 1 0 15 0 a7.5 7.5 0 1 0 -15 0zM842.96 412.42 a7.5 7.5 0 1 0 15 0 a7.5 7.5 0 1 0 -15 0zM778 449.92 a7.5 7.5 0 1 0 15 0 a7.5 7.5 0 1 0 -15 0zM713.05 412.42 a7.5 7.5 0 1 0 15 0 a7.5 7.5 0 1 0 -15 0zM713.05 337.42 a7.5 7.5 0 1 0 15 0 a7.5 7.5 0 1 0 -15 0zM778 524.92 a7.5 7.5 0 1 0 15 0 a7.5 7.5 0 1 0 -15 0zM842.96 562.42 a7.5 7.5 0 1 0 15 0 a7.5 7.5 0 1 0 -15 0zM842.96 637.42 a7.5 7.5 0 1 0 15 0 a7.5 7.5 0 1 0 -15 0zM778 674.92 a7.5 7.5 0 1 0 15 0 a7.5 7.5 0 1 0 -15 0zM907.91 74.92 a7.5 7.5 0 1 0 15 0 a7.5 7.5 0 1 0 -15 0zM972.86 112.42 a7.5 7.5 0 1 0 15 0 a7.5 7.5 0 1 0 -15 0zM972.86 187.42 a7.5 7.5 0 1 0 15 0 a7.5 7.5 0 1 0 -15 0zM907.91 224.92 a7.5 7.5 0 1 0 15 0 a7.5 7.5 0 1 0 -15 0zM842.95 187.42 a7.5 7.5 0 1 0 15 0 a7.5 7.5 0 1 0 -15 0zM842.95 112.42 a7.5 7.5 0 1 0 15 0 a7.5 7.5 0 1 0 -15 0zM842.95 412.42 a7.5 7.5 0 1 0 15 0 a7.5 7.5 0 1 0 -15 0zM907.91 449.92 a7.5 7.5 0 1 0 15 0 a7.5 7.5 0 1 0 -15 0zM907.91 524.92 a7.5 7.5 0 1 0 15 0 a7.5 7.5 0 1 0 -15 0zM842.95 562.42 a7.5 7.5 0 1 0 15 0 a7.5 7.5 0 1 0 -15 0zM1037.82 74.92 a7.5 7.5 0 1 0 15 0 a7.5 7.5 0 1 0 -15 0zM1102.77 112.42 a7.5 7.5 0 1 0 15 0 a7.5 7.5 0 1 0 -15 0zM1102.77 187.42 a7.5 7.5 0 1 0 15 0 a7.5 7.5 0 1 0 -15 0zM1037.82 224.92 a7.5 7.5 0 1 0 15 0 a7.5 7.5 0 1 0 -15 0zM1167.72 74.92 a7.5 7.5 0 1 0 15 0 a7.5 7.5 0 1 0 -15 0zM1232.68 112.42 a7.5 7.5 0 1 0 15 0 a7.5 7.5 0 1 0 -15 0zM1232.68 187.42 a7.5 7.5 0 1 0 15 0 a7.5 7.5 0 1 0 -15 0zM1167.72 224.92 a7.5 7.5 0 1 0 15 0 a7.5 7.5 0 1 0 -15 0zM1167.72 299.92 a7.5 7.5 0 1 0 15 0 a7.5 7.5 0 1 0 -15 0zM1232.68 337.42 a7.5 7.5 0 1 0 15 0 a7.5 7.5 0 1 0 -15 0zM1232.68 412.42 a7.5 7.5 0 1 0 15 0 a7.5 7.5 0 1 0 -15 0zM1167.72 449.92 a7.5 7.5 0 1 0 15 0 a7.5 7.5 0 1 0 -15 0zM1102.77 412.42 a7.5 7.5 0 1 0 15 0 a7.5 7.5 0 1 0 -15 0zM1102.77 337.42 a7.5 7.5 0 1 0 15 0 a7.5 7.5 0 1 0 -15 0zM1297.63 224.92 a7.5 7.5 0 1 0 15 0 a7.5 7.5 0 1 0 -15 0zM1297.63 299.92 a7.5 7.5 0 1 0 15 0 a7.5 7.5 0 1 0 -15 0zM1427.54 74.92 a7.5 7.5 0 1 0 15 0 a7.5 7.5 0 1 0 -15 0zM1492.49 112.42 a7.5 7.5 0 1 0 15 0 a7.5 7.5 0 1 0 -15 0zM1492.49 187.42 a7.5 7.5 0 1 0 15 0 a7.5 7.5 0 1 0 -15 0zM1427.54 224.92 a7.5 7.5 0 1 0 15 0 a7.5 7.5 0 1 0 -15 0zM1362.59 187.42 a7.5 7.5 0 1 0 15 0 a7.5 7.5 0 1 0 -15 0zM1362.59 112.42 a7.5 7.5 0 1 0 15 0 a7.5 7.5 0 1 0 -15 0z" fill="rgba(1, 67, 132, 1)"></path><path d="M10.92 -13.93L54.22 11.07L54.22 61.07L10.92 86.07L-32.38 61.07L-32.38 11.07zM54.22 61.07L97.53 86.07L97.53 136.07L54.22 161.07L10.92 136.07L10.92 86.07zM54.22 211.07L97.53 236.07L97.53 286.07L54.22 311.07L10.92 286.07L10.92 236.07zM54.22 361.07L97.53 386.07L97.53 436.07L54.22 461.07L10.92 436.07L10.92 386.07zM10.92 436.07L54.22 461.07L54.22 511.07L10.92 536.07L-32.38 511.07L-32.38 461.07zM140.83 211.07L184.13 236.07L184.13 286.07L140.83 311.07L97.53 286.07L97.53 236.07zM97.53 286.07L140.83 311.07L140.83 361.07L97.53 386.07L54.22 361.07L54.22 311.07zM140.83 511.07L184.13 536.07L184.13 586.07L140.83 611.07L97.53 586.07L97.53 536.07zM227.43 61.07L270.74 86.07L270.74 136.07L227.43 161.07L184.13 136.07L184.13 86.07zM227.43 211.07L270.74 236.07L270.74 286.07L227.43 311.07L184.13 286.07L184.13 236.07zM184.13 286.07L227.43 311.07L227.43 361.07L184.13 386.07L140.83 361.07L140.83 311.07zM227.43 361.07L270.74 386.07L270.74 436.07L227.43 461.07L184.13 436.07L184.13 386.07zM314.04 61.07L357.34 86.07L357.34 136.07L314.04 161.07L270.74 136.07L270.74 86.07zM314.04 211.07L357.34 236.07L357.34 286.07L314.04 311.07L270.74 286.07L270.74 236.07zM314.04 511.07L357.34 536.07L357.34 586.07L314.04 611.07L270.74 586.07L270.74 536.07zM400.64 61.07L443.95 86.07L443.95 136.07L400.64 161.07L357.34 136.07L357.34 86.07zM357.34 136.07L400.64 161.07L400.64 211.07L357.34 236.07L314.04 211.07L314.04 161.07zM400.64 511.07L443.95 536.07L443.95 586.07L400.64 611.07L357.34 586.07L357.34 536.07zM443.95 136.07L487.25 161.07L487.25 211.07L443.95 236.07L400.64 211.07L400.64 161.07zM443.95 436.07L487.25 461.07L487.25 511.07L443.95 536.07L400.64 511.07L400.64 461.07zM530.55 136.07L573.85 161.07L573.85 211.07L530.55 236.07L487.25 211.07L487.25 161.07zM573.85 361.07L617.15 386.07L617.15 436.07L573.85 461.07L530.55 436.07L530.55 386.07zM530.55 436.07L573.85 461.07L573.85 511.07L530.55 536.07L487.25 511.07L487.25 461.07zM617.15 -13.93L660.46 11.07L660.46 61.07L617.15 86.07L573.85 61.07L573.85 11.07zM660.46 211.07L703.76 236.07L703.76 286.07L660.46 311.07L617.15 286.07L617.15 236.07zM617.15 286.07L660.46 311.07L660.46 361.07L617.15 386.07L573.85 361.07L573.85 311.07zM660.46 361.07L703.76 386.07L703.76 436.07L660.46 461.07L617.15 436.07L617.15 386.07zM617.15 436.07L660.46 461.07L660.46 511.07L617.15 536.07L573.85 511.07L573.85 461.07zM703.76 136.07L747.06 161.07L747.06 211.07L703.76 236.07L660.46 211.07L660.46 161.07zM747.06 361.07L790.37 386.07L790.37 436.07L747.06 461.07L703.76 436.07L703.76 386.07zM790.37 -13.93L833.67 11.07L833.67 61.07L790.37 86.07L747.06 61.07L747.06 11.07zM833.67 211.07L876.97 236.07L876.97 286.07L833.67 311.07L790.37 286.07L790.37 236.07zM790.37 286.07L833.67 311.07L833.67 361.07L790.37 386.07L747.06 361.07L747.06 311.07zM790.37 436.07L833.67 461.07L833.67 511.07L790.37 536.07L747.06 511.07L747.06 461.07zM876.97 -13.93L920.27 11.07L920.27 61.07L876.97 86.07L833.67 61.07L833.67 11.07zM920.27 211.07L963.58 236.07L963.58 286.07L920.27 311.07L876.97 286.07L876.97 236.07zM876.97 436.07L920.27 461.07L920.27 511.07L876.97 536.07L833.67 511.07L833.67 461.07zM920.27 511.07L963.58 536.07L963.58 586.07L920.27 611.07L876.97 586.07L876.97 536.07zM1006.88 361.07L1050.18 386.07L1050.18 436.07L1006.88 461.07L963.58 436.07L963.58 386.07zM963.58 436.07L1006.88 461.07L1006.88 511.07L963.58 536.07L920.27 511.07L920.27 461.07zM1050.18 -13.93L1093.48 11.07L1093.48 61.07L1050.18 86.07L1006.88 61.07L1006.88 11.07zM1093.48 61.07L1136.79 86.07L1136.79 136.07L1093.48 161.07L1050.18 136.07L1050.18 86.07zM1050.18 286.07L1093.48 311.07L1093.48 361.07L1050.18 386.07L1006.88 361.07L1006.88 311.07zM1093.48 361.07L1136.79 386.07L1136.79 436.07L1093.48 461.07L1050.18 436.07L1050.18 386.07zM1093.48 511.07L1136.79 536.07L1136.79 586.07L1093.48 611.07L1050.18 586.07L1050.18 536.07zM1180.09 211.07L1223.39 236.07L1223.39 286.07L1180.09 311.07L1136.79 286.07L1136.79 236.07zM1180.09 361.07L1223.39 386.07L1223.39 436.07L1180.09 461.07L1136.79 436.07L1136.79 386.07zM1136.79 436.07L1180.09 461.07L1180.09 511.07L1136.79 536.07L1093.48 511.07L1093.48 461.07zM1223.39 -13.93L1266.69 11.07L1266.69 61.07L1223.39 86.07L1180.09 61.07L1180.09 11.07zM1223.39 136.07L1266.69 161.07L1266.69 211.07L1223.39 236.07L1180.09 211.07L1180.09 161.07zM1353.3 211.07L1396.6 236.07L1396.6 286.07L1353.3 311.07L1310 286.07L1310 236.07zM1310 436.07L1353.3 461.07L1353.3 511.07L1310 536.07L1266.69 511.07L1266.69 461.07zM1396.6 136.07L1439.9 161.07L1439.9 211.07L1396.6 236.07L1353.3 211.07L1353.3 161.07z" stroke="rgba(6, 80, 156, 0.93)" stroke-width="2"></path></g><defs><mask id="SvgjsMask1003"><rect width="1440" height="560" fill="#ffffff"></rect></mask></defs></svg>