<svg xmlns="http://www.w3.org/2000/svg" version="1.1" xmlns:xlink="http://www.w3.org/1999/xlink" xmlns:svgjs="http://svgjs.com/svgjs" width="1440" height="560" preserveAspectRatio="none" viewBox="0 0 1440 560"><g mask="url(&quot;#SvgjsMask1000&quot;)" fill="none"><rect width="1440" height="560" x="0" y="0" fill="#0e2a47"></rect><path d="M88.55 273.93L153.51 311.43L153.51 386.43L88.55 423.93L23.6 386.43L23.6 311.43zM218.46 48.93L283.42 86.43L283.42 161.43L218.46 198.93L153.51 161.43L153.51 86.43zM283.42 161.43L348.37 198.93L348.37 273.93L283.42 311.43L218.46 273.93L218.46 198.93zM283.42 386.43L348.37 423.93L348.37 498.93L283.42 536.43L218.46 498.93L218.46 423.93zM413.32 -63.57L478.28 -26.07L478.28 48.93L413.32 86.43L348.37 48.93L348.37 -26.07zM543.23 -63.57L608.18 -26.07L608.18 48.93L543.23 86.43L478.28 48.93L478.28 -26.07zM673.14 -63.57L738.09 -26.07L738.09 48.93L673.14 86.43L608.18 48.93L608.18 -26.07zM868 498.93L932.95 536.43L932.95 611.43L868 648.93L803.04 611.43L803.04 536.43zM997.91 498.93L1062.86 536.43L1062.86 611.43L997.91 648.93L932.95 611.43L932.95 536.43zM1062.86 386.43L1127.81 423.93L1127.81 498.93L1062.86 536.43L997.91 498.93L997.91 423.93zM1127.81 498.93L1192.77 536.43L1192.77 611.43L1127.81 648.93L1062.86 611.43L1062.86 536.43zM1192.77 -63.57L1257.72 -26.07L1257.72 48.93L1192.77 86.43L1127.81 48.93L1127.81 -26.07zM1257.72 48.93L1322.67 86.43L1322.67 161.43L1257.72 198.93L1192.77 161.43L1192.77 86.43zM1192.77 386.43L1257.72 423.93L1257.72 498.93L1192.77 536.43L1127.81 498.93L1127.81 423.93zM1322.67 -63.57L1387.63 -26.07L1387.63 48.93L1322.67 86.43L1257.72 48.93L1257.72 -26.07zM1452.58 -63.57L1517.54 -26.07L1517.54 48.93L1452.58 86.43L1387.63 48.93L1387.63 -26.07z" stroke="#03305d" stroke-width="2"></path><path d="M81.05 273.93 a7.5 7.5 0 1 0 15 0 a7.5 7.5 0 1 0 -15 0zM146.01 311.43 a7.5 7.5 0 1 0 15 0 a7.5 7.5 0 1 0 -15 0zM146.01 386.43 a7.5 7.5 0 1 0 15 0 a7.5 7.5 0 1 0 -15 0zM81.05 423.93 a7.5 7.5 0 1 0 15 0 a7.5 7.5 0 1 0 -15 0zM16.1 386.43 a7.5 7.5 0 1 0 15 0 a7.5 7.5 0 1 0 -15 0zM16.1 311.43 a7.5 7.5 0 1 0 15 0 a7.5 7.5 0 1 0 -15 0zM210.96 48.93 a7.5 7.5 0 1 0 15 0 a7.5 7.5 0 1 0 -15 0zM275.92 86.43 a7.5 7.5 0 1 0 15 0 a7.5 7.5 0 1 0 -15 0zM275.92 161.43 a7.5 7.5 0 1 0 15 0 a7.5 7.5 0 1 0 -15 0zM210.96 198.93 a7.5 7.5 0 1 0 15 0 a7.5 7.5 0 1 0 -15 0zM146.01 161.43 a7.5 7.5 0 1 0 15 0 a7.5 7.5 0 1 0 -15 0zM146.01 86.43 a7.5 7.5 0 1 0 15 0 a7.5 7.5 0 1 0 -15 0zM340.87 198.93 a7.5 7.5 0 1 0 15 0 a7.5 7.5 0 1 0 -15 0zM340.87 273.93 a7.5 7.5 0 1 0 15 0 a7.5 7.5 0 1 0 -15 0zM275.92 311.43 a7.5 7.5 0 1 0 15 0 a7.5 7.5 0 1 0 -15 0zM210.96 273.93 a7.5 7.5 0 1 0 15 0 a7.5 7.5 0 1 0 -15 0zM275.92 386.43 a7.5 7.5 0 1 0 15 0 a7.5 7.5 0 1 0 -15 0zM340.87 423.93 a7.5 7.5 0 1 0 15 0 a7.5 7.5 0 1 0 -15 0zM340.87 498.93 a7.5 7.5 0 1 0 15 0 a7.5 7.5 0 1 0 -15 0zM275.92 536.43 a7.5 7.5 0 1 0 15 0 a7.5 7.5 0 1 0 -15 0zM210.96 498.93 a7.5 7.5 0 1 0 15 0 a7.5 7.5 0 1 0 -15 0zM210.96 423.93 a7.5 7.5 0 1 0 15 0 a7.5 7.5 0 1 0 -15 0zM405.82 -63.57 a7.5 7.5 0 1 0 15 0 a7.5 7.5 0 1 0 -15 0zM470.78 -26.07 a7.5 7.5 0 1 0 15 0 a7.5 7.5 0 1 0 -15 0zM470.78 48.93 a7.5 7.5 0 1 0 15 0 a7.5 7.5 0 1 0 -15 0zM405.82 86.43 a7.5 7.5 0 1 0 15 0 a7.5 7.5 0 1 0 -15 0zM340.87 48.93 a7.5 7.5 0 1 0 15 0 a7.5 7.5 0 1 0 -15 0zM340.87 -26.07 a7.5 7.5 0 1 0 15 0 a7.5 7.5 0 1 0 -15 0zM535.73 -63.57 a7.5 7.5 0 1 0 15 0 a7.5 7.5 0 1 0 -15 0zM600.68 -26.07 a7.5 7.5 0 1 0 15 0 a7.5 7.5 0 1 0 -15 0zM600.68 48.93 a7.5 7.5 0 1 0 15 0 a7.5 7.5 0 1 0 -15 0zM535.73 86.43 a7.5 7.5 0 1 0 15 0 a7.5 7.5 0 1 0 -15 0zM665.64 -63.57 a7.5 7.5 0 1 0 15 0 a7.5 7.5 0 1 0 -15 0zM730.59 -26.07 a7.5 7.5 0 1 0 15 0 a7.5 7.5 0 1 0 -15 0zM730.59 48.93 a7.5 7.5 0 1 0 15 0 a7.5 7.5 0 1 0 -15 0zM665.64 86.43 a7.5 7.5 0 1 0 15 0 a7.5 7.5 0 1 0 -15 0zM860.5 498.93 a7.5 7.5 0 1 0 15 0 a7.5 7.5 0 1 0 -15 0zM925.45 536.43 a7.5 7.5 0 1 0 15 0 a7.5 7.5 0 1 0 -15 0zM925.45 611.43 a7.5 7.5 0 1 0 15 0 a7.5 7.5 0 1 0 -15 0zM860.5 648.93 a7.5 7.5 0 1 0 15 0 a7.5 7.5 0 1 0 -15 0zM795.54 611.43 a7.5 7.5 0 1 0 15 0 a7.5 7.5 0 1 0 -15 0zM795.54 536.43 a7.5 7.5 0 1 0 15 0 a7.5 7.5 0 1 0 -15 0zM990.41 498.93 a7.5 7.5 0 1 0 15 0 a7.5 7.5 0 1 0 -15 0zM1055.36 536.43 a7.5 7.5 0 1 0 15 0 a7.5 7.5 0 1 0 -15 0zM1055.36 611.43 a7.5 7.5 0 1 0 15 0 a7.5 7.5 0 1 0 -15 0zM990.41 648.93 a7.5 7.5 0 1 0 15 0 a7.5 7.5 0 1 0 -15 0zM1055.36 386.43 a7.5 7.5 0 1 0 15 0 a7.5 7.5 0 1 0 -15 0zM1120.31 423.93 a7.5 7.5 0 1 0 15 0 a7.5 7.5 0 1 0 -15 0zM1120.31 498.93 a7.5 7.5 0 1 0 15 0 a7.5 7.5 0 1 0 -15 0zM990.41 423.93 a7.5 7.5 0 1 0 15 0 a7.5 7.5 0 1 0 -15 0zM1185.27 536.43 a7.5 7.5 0 1 0 15 0 a7.5 7.5 0 1 0 -15 0zM1185.27 611.43 a7.5 7.5 0 1 0 15 0 a7.5 7.5 0 1 0 -15 0zM1120.31 648.93 a7.5 7.5 0 1 0 15 0 a7.5 7.5 0 1 0 -15 0zM1185.27 -63.57 a7.5 7.5 0 1 0 15 0 a7.5 7.5 0 1 0 -15 0zM1250.22 -26.07 a7.5 7.5 0 1 0 15 0 a7.5 7.5 0 1 0 -15 0zM1250.22 48.93 a7.5 7.5 0 1 0 15 0 a7.5 7.5 0 1 0 -15 0zM1185.27 86.43 a7.5 7.5 0 1 0 15 0 a7.5 7.5 0 1 0 -15 0zM1120.31 48.93 a7.5 7.5 0 1 0 15 0 a7.5 7.5 0 1 0 -15 0zM1120.31 -26.07 a7.5 7.5 0 1 0 15 0 a7.5 7.5 0 1 0 -15 0zM1315.17 86.43 a7.5 7.5 0 1 0 15 0 a7.5 7.5 0 1 0 -15 0zM1315.17 161.43 a7.5 7.5 0 1 0 15 0 a7.5 7.5 0 1 0 -15 0zM1250.22 198.93 a7.5 7.5 0 1 0 15 0 a7.5 7.5 0 1 0 -15 0zM1185.27 161.43 a7.5 7.5 0 1 0 15 0 a7.5 7.5 0 1 0 -15 0zM1185.27 386.43 a7.5 7.5 0 1 0 15 0 a7.5 7.5 0 1 0 -15 0zM1250.22 423.93 a7.5 7.5 0 1 0 15 0 a7.5 7.5 0 1 0 -15 0zM1250.22 498.93 a7.5 7.5 0 1 0 15 0 a7.5 7.5 0 1 0 -15 0zM1315.17 -63.57 a7.5 7.5 0 1 0 15 0 a7.5 7.5 0 1 0 -15 0zM1380.13 -26.07 a7.5 7.5 0 1 0 15 0 a7.5 7.5 0 1 0 -15 0zM1380.13 48.93 a7.5 7.5 0 1 0 15 0 a7.5 7.5 0 1 0 -15 0zM1445.08 -63.57 a7.5 7.5 0 1 0 15 0 a7.5 7.5 0 1 0 -15 0zM1510.04 -26.07 a7.5 7.5 0 1 0 15 0 a7.5 7.5 0 1 0 -15 0zM1510.04 48.93 a7.5 7.5 0 1 0 15 0 a7.5 7.5 0 1 0 -15 0zM1445.08 86.43 a7.5 7.5 0 1 0 15 0 a7.5 7.5 0 1 0 -15 0z" fill="#03305d"></path><path d="M44.26 -46.62L87.56 -21.62L87.56 28.38L44.26 53.38L0.96 28.38L0.96 -21.62zM87.56 28.38L130.87 53.38L130.87 103.38L87.56 128.38L44.26 103.38L44.26 53.38zM87.56 178.38L130.87 203.38L130.87 253.38L87.56 278.38L44.26 253.38L44.26 203.38zM44.26 253.38L87.56 278.38L87.56 328.38L44.26 353.38L0.96 328.38L0.96 278.38zM44.26 403.38L87.56 428.38L87.56 478.38L44.26 503.38L0.96 478.38L0.96 428.38zM87.56 478.38L130.87 503.38L130.87 553.38L87.56 578.38L44.26 553.38L44.26 503.38zM130.87 -46.62L174.17 -21.62L174.17 28.38L130.87 53.38L87.56 28.38L87.56 -21.62zM130.87 103.38L174.17 128.38L174.17 178.38L130.87 203.38L87.56 178.38L87.56 128.38zM174.17 328.38L217.47 353.38L217.47 403.38L174.17 428.38L130.87 403.38L130.87 353.38zM174.17 478.38L217.47 503.38L217.47 553.38L174.17 578.38L130.87 553.38L130.87 503.38zM260.77 328.38L304.07 353.38L304.07 403.38L260.77 428.38L217.47 403.38L217.47 353.38zM347.38 28.38L390.68 53.38L390.68 103.38L347.38 128.38L304.07 103.38L304.07 53.38zM304.07 103.38L347.38 128.38L347.38 178.38L304.07 203.38L260.77 178.38L260.77 128.38zM304.07 403.38L347.38 428.38L347.38 478.38L304.07 503.38L260.77 478.38L260.77 428.38zM347.38 478.38L390.68 503.38L390.68 553.38L347.38 578.38L304.07 553.38L304.07 503.38zM433.98 28.38L477.29 53.38L477.29 103.38L433.98 128.38L390.68 103.38L390.68 53.38zM433.98 178.38L477.29 203.38L477.29 253.38L433.98 278.38L390.68 253.38L390.68 203.38zM433.98 328.38L477.29 353.38L477.29 403.38L433.98 428.38L390.68 403.38L390.68 353.38zM520.59 28.38L563.89 53.38L563.89 103.38L520.59 128.38L477.29 103.38L477.29 53.38zM477.29 253.38L520.59 278.38L520.59 328.38L477.29 353.38L433.98 328.38L433.98 278.38zM520.59 328.38L563.89 353.38L563.89 403.38L520.59 428.38L477.29 403.38L477.29 353.38zM477.29 403.38L520.59 428.38L520.59 478.38L477.29 503.38L433.98 478.38L433.98 428.38zM607.19 28.38L650.5 53.38L650.5 103.38L607.19 128.38L563.89 103.38L563.89 53.38zM563.89 253.38L607.19 278.38L607.19 328.38L563.89 353.38L520.59 328.38L520.59 278.38zM563.89 403.38L607.19 428.38L607.19 478.38L563.89 503.38L520.59 478.38L520.59 428.38zM607.19 478.38L650.5 503.38L650.5 553.38L607.19 578.38L563.89 553.38L563.89 503.38zM693.8 28.38L737.1 53.38L737.1 103.38L693.8 128.38L650.5 103.38L650.5 53.38zM693.8 178.38L737.1 203.38L737.1 253.38L693.8 278.38L650.5 253.38L650.5 203.38zM693.8 328.38L737.1 353.38L737.1 403.38L693.8 428.38L650.5 403.38L650.5 353.38zM693.8 478.38L737.1 503.38L737.1 553.38L693.8 578.38L650.5 553.38L650.5 503.38zM737.1 -46.62L780.4 -21.62L780.4 28.38L737.1 53.38L693.8 28.38L693.8 -21.62zM780.4 28.38L823.71 53.38L823.71 103.38L780.4 128.38L737.1 103.38L737.1 53.38zM737.1 103.38L780.4 128.38L780.4 178.38L737.1 203.38L693.8 178.38L693.8 128.38zM780.4 478.38L823.71 503.38L823.71 553.38L780.4 578.38L737.1 553.38L737.1 503.38zM867.01 28.38L910.31 53.38L910.31 103.38L867.01 128.38L823.71 103.38L823.71 53.38zM823.71 103.38L867.01 128.38L867.01 178.38L823.71 203.38L780.4 178.38L780.4 128.38zM823.71 253.38L867.01 278.38L867.01 328.38L823.71 353.38L780.4 328.38L780.4 278.38zM867.01 478.38L910.31 503.38L910.31 553.38L867.01 578.38L823.71 553.38L823.71 503.38zM910.31 -46.62L953.61 -21.62L953.61 28.38L910.31 53.38L867.01 28.38L867.01 -21.62zM1040.22 28.38L1083.52 53.38L1083.52 103.38L1040.22 128.38L996.92 103.38L996.92 53.38zM996.92 103.38L1040.22 128.38L1040.22 178.38L996.92 203.38L953.61 178.38L953.61 128.38zM996.92 253.38L1040.22 278.38L1040.22 328.38L996.92 353.38L953.61 328.38L953.61 278.38zM1040.22 328.38L1083.52 353.38L1083.52 403.38L1040.22 428.38L996.92 403.38L996.92 353.38zM996.92 403.38L1040.22 428.38L1040.22 478.38L996.92 503.38L953.61 478.38L953.61 428.38zM1083.52 103.38L1126.82 128.38L1126.82 178.38L1083.52 203.38L1040.22 178.38L1040.22 128.38zM1126.82 178.38L1170.13 203.38L1170.13 253.38L1126.82 278.38L1083.52 253.38L1083.52 203.38zM1126.82 328.38L1170.13 353.38L1170.13 403.38L1126.82 428.38L1083.52 403.38L1083.52 353.38zM1256.73 -46.62L1300.03 -21.62L1300.03 28.38L1256.73 53.38L1213.43 28.38L1213.43 -21.62zM1300.03 28.38L1343.34 53.38L1343.34 103.38L1300.03 128.38L1256.73 103.38L1256.73 53.38zM1256.73 103.38L1300.03 128.38L1300.03 178.38L1256.73 203.38L1213.43 178.38L1213.43 128.38zM1300.03 178.38L1343.34 203.38L1343.34 253.38L1300.03 278.38L1256.73 253.38L1256.73 203.38zM1256.73 253.38L1300.03 278.38L1300.03 328.38L1256.73 353.38L1213.43 328.38L1213.43 278.38zM1300.03 328.38L1343.34 353.38L1343.34 403.38L1300.03 428.38L1256.73 403.38L1256.73 353.38zM1256.73 403.38L1300.03 428.38L1300.03 478.38L1256.73 503.38L1213.43 478.38L1213.43 428.38zM1300.03 478.38L1343.34 503.38L1343.34 553.38L1300.03 578.38L1256.73 553.38L1256.73 503.38zM1343.34 103.38L1386.64 128.38L1386.64 178.38L1343.34 203.38L1300.03 178.38L1300.03 128.38zM1343.34 253.38L1386.64 278.38L1386.64 328.38L1343.34 353.38L1300.03 328.38L1300.03 278.38zM1386.64 328.38L1429.94 353.38L1429.94 403.38L1386.64 428.38L1343.34 403.38L1343.34 353.38zM1386.64 478.38L1429.94 503.38L1429.94 553.38L1386.64 578.38L1343.34 553.38L1343.34 503.38zM1429.94 -46.62L1473.24 -21.62L1473.24 28.38L1429.94 53.38L1386.64 28.38L1386.64 -21.62zM1473.24 178.38L1516.55 203.38L1516.55 253.38L1473.24 278.38L1429.94 253.38L1429.94 203.38zM1473.24 328.38L1516.55 353.38L1516.55 403.38L1473.24 428.38L1429.94 403.38L1429.94 353.38zM1473.24 478.38L1516.55 503.38L1516.55 553.38L1473.24 578.38L1429.94 553.38L1429.94 503.38z" stroke="rgba(6, 80, 156, 0.93)" stroke-width="2"></path></g><defs><mask id="SvgjsMask1000"><rect width="1440" height="560" fill="#ffffff"></rect></mask></defs></svg>