<?xml version="1.0" encoding="utf-8"?><svg xmlns="http://www.w3.org/2000/svg" xmlns:xlink="http://www.w3.org/1999/xlink" width="1366" height="625" preserveAspectRatio="xMidYMid" viewBox="0 0 1366 625" style="z-index:1;margin-right:-2px;display:block;background-repeat-y:initial;background-repeat-x:initial;background-color:rgb(255, 255, 255);animation-play-state:paused" ><g transform="translate(683,312.5) scale(1,1) translate(-683,-312.5)" style="transform:matrix(1, 0, 0, 1, 0, 0);animation-play-state:paused" ><defs style="animation-play-state:paused" ><linearGradient id="ldbk-photon-1ybfh0mfzdv-lg" x1="658" x2="1366" y1="0" y2="0" gradientUnits="userSpaceOnUse" style="animation-play-state:paused" ><stop stop-color="#1d3f72" offset="0" style="animation-play-state:paused" ></stop>

    
<stop stop-color="#1b2f45" offset="1" style="animation-play-state:paused" ></stop></linearGradient>

  
<mask id="ldbk-photon-1ybfh0mfzdv-mask" style="animation-play-state:paused" ><g style="animation-play-state:paused" ><path d="M1666 -0.5 L687.8518315356538 -0.5 A15 15 0 0 1 687.8518315356538 30.5 L1666 30.5" fill="#fff" transform="matrix(1,0,0,1,32.88445281982422,0)" style="transform:matrix(1, 0, 0, 1, 32.8845, 0);animation-play-state:paused" ></path>
<path d="M1425.8169596804012 -0.5 L1455.6339193608023 -0.5 A15 15 0 0 1 1455.6339193608023 30.5 L1425.8169596804012 30.5 A15 15 0 0 1 1425.8169596804012 -0.5" fill="#000" transform="matrix(1,0,0,1,0,0)" opacity="1" style="transform:matrix(1, 0, 0, 1, 0, 0);animation-play-state:paused" ></path>
<path d="M1666 29.5 L633.0241277859493 29.5 A15 15 0 0 0 633.0241277859493 60.5 L1666 60.5" fill="#fff" transform="matrix(1,0,0,1,-1.0337371826171875,0)" style="transform:matrix(1, 0, 0, 1, -1.03374, 0);animation-play-state:paused" ></path>
<path d="M702.5551510063626 29.5 L719.2139583087288 29.5 A15 15 0 0 1 719.2139583087288 60.5 L702.5551510063626 60.5 A15 15 0 0 1 702.5551510063626 29.5" fill="#fff" transform="matrix(1,0,0,1,0,0)" opacity="1" style="transform:matrix(1, 0, 0, 1, 0, 0);animation-play-state:paused" ></path>
<path d="M1666 59.5 L676.534458927295 59.5 A15 15 0 0 1 676.534458927295 90.5 L1666 90.5" fill="#fff" transform="matrix(1,0,0,1,1.478865623474121,0)" style="transform:matrix(1, 0, 0, 1, 1.47887, 0);animation-play-state:paused" ></path>
<path d="M1429.3488335596908 59.5 L1462.6976671193815 59.5 A15 15 0 0 1 1462.6976671193815 90.5 L1429.3488335596908 90.5 A15 15 0 0 1 1429.3488335596908 59.5" fill="#000" transform="matrix(1,0,0,1,-952.5834350585938,0)" opacity="0.204082" style="transform:matrix(1, 0, 0, 1, -952.583, 0);opacity:0.204082;animation-play-state:paused" ></path>
<path d="M1666 89.5 L631.7851139057475 89.5 A15 15 0 0 0 631.7851139057475 120.5 L1666 120.5" fill="#fff" transform="matrix(1,0,0,1,-15.768804550170898,0)" style="transform:matrix(1, 0, 0, 1, -15.7688, 0);animation-play-state:paused" ></path>
<path d="M690.2284149991679 89.5 L700.7589631953593 89.5 A15 15 0 0 1 700.7589631953593 120.5 L690.2284149991679 120.5 A15 15 0 0 1 690.2284149991679 89.5" fill="#fff" transform="matrix(1,0,0,1,0,0)" opacity="0.816327" style="transform:matrix(1, 0, 0, 1, 0, 0);opacity:0.816327;animation-play-state:paused" ></path>
<path d="M1666 119.5 L662.1556913969744 119.5 A15 15 0 0 1 662.1556913969744 150.5 L1666 150.5" fill="#fff" transform="matrix(1,0,0,1,26.32568359375,0)" style="transform:matrix(1, 0, 0, 1, 26.3257, 0);animation-play-state:paused" ></path>
<path d="M1434.0006510131761 119.5 L1472.0013020263523 119.5 A15 15 0 0 1 1472.0013020263523 150.5 L1434.0006510131761 150.5 A15 15 0 0 1 1434.0006510131761 119.5" fill="#000" transform="matrix(1,0,0,1,-236.81661987304688,0)" opacity="1" style="transform:matrix(1, 0, 0, 1, -236.817, 0);animation-play-state:paused" ></path>
<path d="M1666 149.5 L594.2405670535173 149.5 A15 15 0 0 0 594.2405670535173 180.5 L1666 180.5" fill="#fff" transform="matrix(1,0,0,1,-16.696815490722656,0)" style="transform:matrix(1, 0, 0, 1, -16.6968, 0);animation-play-state:paused" ></path>
<path d="M715.6017060750193 149.5 L733.5985929840887 149.5 A15 15 0 0 1 733.5985929840887 180.5 L715.6017060750193 180.5 A15 15 0 0 1 715.6017060750193 149.5" fill="#fff" transform="matrix(1,0,0,1,0,0)" opacity="0.408163" style="transform:matrix(1, 0, 0, 1, 0, 0);opacity:0.408163;animation-play-state:paused" ></path>
<path d="M1666 179.5 L629.3821284580471 179.5 A15 15 0 0 1 629.3821284580471 210.5 L1666 210.5" fill="#fff" transform="matrix(1,0,0,1,12.520517349243164,0)" style="transform:matrix(1, 0, 0, 1, 12.5205, 0);animation-play-state:paused" ></path>
<path d="M1418.7195401677084 179.5 L1441.4390803354167 179.5 A15 15 0 0 1 1441.4390803354167 210.5 L1418.7195401677084 210.5 A15 15 0 0 1 1418.7195401677084 179.5" fill="#000" transform="matrix(1,0,0,1,-918.802490234375,0)" opacity="0.204082" style="transform:matrix(1, 0, 0, 1, -918.802, 0);opacity:0.204082;animation-play-state:paused" ></path>
<path d="M1666 209.5 L610.8898106264564 209.5 A15 15 0 0 0 610.8898106264564 240.5 L1666 240.5" fill="#fff" transform="matrix(1,0,0,1,-35.057350158691406,0)" style="transform:matrix(1, 0, 0, 1, -35.0574, 0);animation-play-state:paused" ></path>
<path d="M712.3786005702984 209.5 L728.205736485223 209.5 A15 15 0 0 1 728.205736485223 240.5 L712.3786005702984 240.5 A15 15 0 0 1 712.3786005702984 209.5" fill="#fff" transform="matrix(1,0,0,1,0,0)" opacity="1" style="transform:matrix(1, 0, 0, 1, 0, 0);animation-play-state:paused" ></path>
<path d="M1666 239.5 L672.3266673418425 239.5 A15 15 0 0 1 672.3266673418425 270.5 L1666 270.5" fill="#fff" transform="matrix(1,0,0,1,38.72437286376953,0)" style="transform:matrix(1, 0, 0, 1, 38.7244, 0);animation-play-state:paused" ></path>
<path d="M1423.7795805467422 239.5 L1451.5591610934844 239.5 A15 15 0 0 1 1451.5591610934844 270.5 L1423.7795805467422 270.5 A15 15 0 0 1 1423.7795805467422 239.5" fill="#000" transform="matrix(1,0,0,1,-487.3526916503906,0)" opacity="1" style="transform:matrix(1, 0, 0, 1, -487.353, 0);animation-play-state:paused" ></path>
<path d="M1666 269.5 L627.1617169724225 269.5 A15 15 0 0 0 627.1617169724225 300.5 L1666 300.5" fill="#fff" transform="matrix(1,0,0,1,-1.3017935752868652,0)" style="transform:matrix(1, 0, 0, 1, -1.30179, 0);animation-play-state:paused" ></path>
<path d="M713.729522172486 269.5 L736.0645482947931 269.5 A15 15 0 0 1 736.0645482947931 300.5 L713.729522172486 300.5 A15 15 0 0 1 713.729522172486 269.5" fill="#fff" transform="matrix(1,0,0,1,0,0)" opacity="1" style="transform:matrix(1, 0, 0, 1, 0, 0);animation-play-state:paused" ></path>
<path d="M1666 299.5 L661.0384381534341 299.5 A15 15 0 0 1 661.0384381534341 330.5 L1666 330.5" fill="#fff" transform="matrix(1,0,0,1,1.1485481262207031,0)" style="transform:matrix(1, 0, 0, 1, 1.14855, 0);animation-play-state:paused" ></path>
<path d="M1407.963410904605 299.5 L1419.9268218092102 299.5 A15 15 0 0 1 1419.9268218092102 330.5 L1407.963410904605 330.5 A15 15 0 0 1 1407.963410904605 299.5" fill="#000" transform="matrix(1,0,0,1,-531.7904052734375,0)" opacity="0.816327" style="transform:matrix(1, 0, 0, 1, -531.79, 0);opacity:0.816327;animation-play-state:paused" ></path>
<path d="M1666 329.5 L640.9231153862723 329.5 A15 15 0 0 0 640.9231153862723 360.5 L1666 360.5" fill="#fff" transform="matrix(1,0,0,1,-15.83076000213623,0)" style="transform:matrix(1, 0, 0, 1, -15.8308, 0);animation-play-state:paused" ></path>
<path d="M751.1390491742608 329.5 L761.9675038852941 329.5 A15 15 0 0 1 761.9675038852941 360.5 L751.1390491742608 360.5 A15 15 0 0 1 751.1390491742608 329.5" fill="#fff" transform="matrix(1,0,0,1,0,0)" opacity="0.408163" style="transform:matrix(1, 0, 0, 1, 0, 0);opacity:0.408163;animation-play-state:paused" ></path>
<path d="M1666 359.5 L692.2450587930365 359.5 A15 15 0 0 1 692.2450587930365 390.5 L1666 390.5" fill="#fff" transform="matrix(1,0,0,1,11.106139183044434,0)" style="transform:matrix(1, 0, 0, 1, 11.1061, 0);animation-play-state:paused" ></path>
<path d="M1423.6987446935564 359.5 L1451.3974893871127 359.5 A15 15 0 0 1 1451.3974893871127 390.5 L1423.6987446935564 390.5 A15 15 0 0 1 1423.6987446935564 359.5" fill="#000" transform="matrix(1,0,0,1,-232.57945251464844,0)" opacity="1" style="transform:matrix(1, 0, 0, 1, -232.579, 0);animation-play-state:paused" ></path>
<path d="M1666 389.5 L645.8661269137688 389.5 A15 15 0 0 0 645.8661269137688 420.5 L1666 420.5" fill="#fff" transform="matrix(1,0,0,1,-34.52445602416992,0)" style="transform:matrix(1, 0, 0, 1, -34.5245, 0);animation-play-state:paused" ></path>
<path d="M749.903590647175 389.5 L778.1918172480451 389.5 A15 15 0 0 1 778.1918172480451 420.5 L749.903590647175 420.5 A15 15 0 0 1 749.903590647175 389.5" fill="#fff" transform="matrix(1,0,0,1,0,0)" opacity="0.612244" style="transform:matrix(1, 0, 0, 1, 0, 0);opacity:0.612244;animation-play-state:paused" ></path>
<path d="M1666 419.5 L699.4498253411268 419.5 A15 15 0 0 1 699.4498253411268 450.5 L1666 450.5" fill="#fff" transform="matrix(1,0,0,1,45.161354064941406,0)" style="transform:matrix(1, 0, 0, 1, 45.1614, 0);animation-play-state:paused" ></path>
<path d="M1408.750085325448 419.5 L1421.500170650896 419.5 A15 15 0 0 1 1421.500170650896 450.5 L1408.750085325448 450.5 A15 15 0 0 1 1408.750085325448 419.5" fill="#000" transform="matrix(1,0,0,1,-0.0007152539910748601,0)" opacity="1" style="transform:matrix(1, 0, 0, 1, -0.000715254, 0);animation-play-state:paused" ></path>
<path d="M1666 449.5 L640.3623224489737 449.5 A15 15 0 0 0 640.3623224489737 480.5 L1666 480.5" fill="#fff" transform="matrix(1,0,0,1,-26.62267303466797,0)" style="transform:matrix(1, 0, 0, 1, -26.6227, 0);animation-play-state:paused" ></path>
<path d="M777.3458758575831 449.5 L798.3080064975397 449.5 A15 15 0 0 1 798.3080064975397 480.5 L777.3458758575831 480.5 A15 15 0 0 1 777.3458758575831 449.5" fill="#fff" transform="matrix(1,0,0,1,0,0)" opacity="0.816326" style="transform:matrix(1, 0, 0, 1, 0, 0);opacity:0.816326;animation-play-state:paused" ></path>
<path d="M1666 479.5 L709.515783937422 479.5 A15 15 0 0 1 709.515783937422 510.5 L1666 510.5" fill="#fff" transform="matrix(1,0,0,1,32.60309982299805,0)" style="transform:matrix(1, 0, 0, 1, 32.6031, 0);animation-play-state:paused" ></path>
<path d="M1429.657147097754 479.5 L1463.314294195508 479.5 A15 15 0 0 1 1463.314294195508 510.5 L1429.657147097754 510.5 A15 15 0 0 1 1429.657147097754 479.5" fill="#000" transform="matrix(1,0,0,1,-819.813720703125,0)" opacity="0.612245" style="transform:matrix(1, 0, 0, 1, -819.814, 0);opacity:0.612245;animation-play-state:paused" ></path>
<path d="M1666 509.5 L678.9616839132008 509.5 A15 15 0 0 0 678.9616839132008 540.5 L1666 540.5" fill="#fff" transform="matrix(1,0,0,1,-0.8836688995361328,0)" style="transform:matrix(1, 0, 0, 1, -0.883669, 0);animation-play-state:paused" ></path>
<path d="M759.0816790438647 509.5 L778.1731191756626 509.5 A15 15 0 0 1 778.1731191756626 540.5 L759.0816790438647 540.5 A15 15 0 0 1 759.0816790438647 509.5" fill="#fff" transform="matrix(1,0,0,1,0,0)" opacity="1" style="transform:matrix(1, 0, 0, 1, 0, 0);animation-play-state:paused" ></path>
<path d="M1666 539.5 L706.1059728625467 539.5 A15 15 0 0 1 706.1059728625467 570.5 L1666 570.5" fill="#fff" transform="matrix(1,0,0,1,0.9151374101638794,0)" style="transform:matrix(1, 0, 0, 1, 0.915137, 0);animation-play-state:paused" ></path>
<path d="M1409.9721496121454 539.5 L1423.9442992242907 539.5 A15 15 0 0 1 1423.9442992242907 570.5 L1409.9721496121454 570.5 A15 15 0 0 1 1409.9721496121454 539.5" fill="#000" transform="matrix(1,0,0,1,-911.3301391601562,0)" opacity="0.408162" style="transform:matrix(1, 0, 0, 1, -911.33, 0);opacity:0.408162;animation-play-state:paused" ></path>
<path d="M1666 569.5 L650.2936189858937 569.5 A15 15 0 0 0 650.2936189858937 600.5 L1666 600.5" fill="#fff" transform="matrix(1,0,0,1,-1.4276046752929688,0)" style="transform:matrix(1, 0, 0, 1, -1.4276, 0);animation-play-state:paused" ></path>
<path d="M777.3615714957642 569.5 L797.8312893476799 569.5 A15 15 0 0 1 797.8312893476799 600.5 L777.3615714957642 600.5 A15 15 0 0 1 777.3615714957642 569.5" fill="#fff" transform="matrix(1,0,0,1,0,0)" opacity="0.816327" style="transform:matrix(1, 0, 0, 1, 0, 0);opacity:0.816327;animation-play-state:paused" ></path>
<path d="M1666 599.5 L683.4410022270174 599.5 A15 15 0 0 1 683.4410022270174 630.5 L1666 630.5" fill="#fff" transform="matrix(1,0,0,1,42.16887664794922,0)" style="transform:matrix(1, 0, 0, 1, 42.1689, 0);animation-play-state:paused" ></path>
<path d="M1434.2379839878372 599.5 L1472.4759679756744 599.5 A15 15 0 0 1 1472.4759679756744 630.5 L1434.2379839878372 630.5 A15 15 0 0 1 1434.2379839878372 599.5" fill="#000" transform="matrix(1,0,0,1,-1143.4892578125,0)" opacity="0.204082" style="transform:matrix(1, 0, 0, 1, -1143.49, 0);opacity:0.204082;animation-play-state:paused" ></path></g></mask></defs>


<rect x="0" y="0" width="1366" height="625" fill="url(#ldbk-photon-1ybfh0mfzdv-lg)" mask="url(#ldbk-photon-1ybfh0mfzdv-mask)" style="animation-play-state:paused" ></rect></g></svg>