<svg xmlns="http://www.w3.org/2000/svg" version="1.1" xmlns:xlink="http://www.w3.org/1999/xlink" xmlns:svgjs="http://svgjs.com/svgjs" width="1440" height="560" preserveAspectRatio="none" viewBox="0 0 1440 560"><g mask="url(&quot;#SvgjsMask1007&quot;)" fill="none"><rect width="1440" height="560" x="0" y="0" fill="url(#SvgjsLinearGradient1008)"></rect><path d="M1440 0L1146.17 0L1440 221.88z" fill="rgba(255, 255, 255, .1)"></path><path d="M1146.17 0L1440 221.88L1440 348.87L866.3900000000001 0z" fill="rgba(255, 255, 255, .075)"></path><path d="M866.3900000000001 0L1440 348.87L1440 351.83L536.6100000000001 0z" fill="rgba(255, 255, 255, .05)"></path><path d="M536.6100000000001 0L1440 351.83L1440 458L251.21000000000015 0z" fill="rgba(255, 255, 255, .025)"></path><path d="M0 560L598.28 560L0 455.15999999999997z" fill="rgba(0, 0, 0, .1)"></path><path d="M0 455.15999999999997L598.28 560L935.15 560L0 203.83999999999997z" fill="rgba(0, 0, 0, .075)"></path><path d="M0 203.84000000000003L935.15 560L951.53 560L0 152.48000000000002z" fill="rgba(0, 0, 0, .05)"></path><path d="M0 152.48000000000002L951.53 560L970.04 560L0 113.91000000000003z" fill="rgba(0, 0, 0, .025)"></path></g><defs><mask id="SvgjsMask1007"><rect width="1440" height="560" fill="#ffffff"></rect></mask><linearGradient x1="15.28%" y1="-39.29%" x2="84.72%" y2="139.29%" gradientUnits="userSpaceOnUse" id="SvgjsLinearGradient1008"><stop stop-color="#0e2a47" offset="0"></stop><stop stop-color="rgba(27, 47, 69, 1)" offset="1"></stop></linearGradient></defs></svg>