<svg xmlns="http://www.w3.org/2000/svg" version="1.1" xmlns:xlink="http://www.w3.org/1999/xlink" xmlns:svgjs="http://svgjs.com/svgjs" width="1440" height="560" preserveAspectRatio="none" viewBox="0 0 1440 560"><g mask="url(&quot;#SvgjsMask1041&quot;)" fill="none"><rect width="1440" height="560" x="0" y="0" fill="rgba(14, 42, 71, 1)"></rect><path d="M0,370.596C68.165,371.224,121.372,311.214,168.122,261.603C207.382,219.94,222.607,164.538,244.153,111.501C264.708,60.905,294.838,12.605,291.419,-41.9C287.865,-98.547,253.615,-145.928,224.932,-194.905C189.99,-254.569,165.819,-325.521,105.513,-359.343C40.291,-395.923,-43.248,-411.678,-112.856,-384.351C-181.447,-357.423,-206.849,-276.637,-252.499,-218.792C-295.667,-164.092,-365.938,-122.981,-373.767,-53.74C-381.572,15.289,-330.797,75.655,-292.333,133.504C-258.871,183.83,-213.081,220.456,-166.143,258.524C-113.187,301.474,-68.181,369.968,0,370.596" fill="#091b2e"></path><path d="M1440 961.421C1516.554 979.5509999999999 1602.492 958.0419999999999 1665.722 911.231 1727.628 865.4 1754.998 787.437 1775.349 713.149 1793.4470000000001 647.0840000000001 1778.502 580.23 1775.1399999999999 511.814 1771.379 435.278 1796.4470000000001 351.625 1754.436 287.54 1711.344 221.80599999999998 1629.337 194.094 1553.4470000000001 173.635 1478.759 153.5 1399.05 146.361 1326.091 172.063 1255.005 197.10500000000002 1195.871 249.90300000000002 1155.783 313.725 1118.8899999999999 372.46000000000004 1111.696 443.486 1112.038 512.846 1112.343 574.736 1128.662 634.261 1157.632 688.953 1185.347 741.2760000000001 1231.3029999999999 777.326 1273.911 818.44 1327.567 870.2139999999999 1367.445 944.238 1440 961.421" fill="#133960"></path></g><defs><mask id="SvgjsMask1041"><rect width="1440" height="560" fill="#ffffff"></rect></mask></defs></svg>