<svg xmlns="http://www.w3.org/2000/svg" version="1.1" xmlns:xlink="http://www.w3.org/1999/xlink" xmlns:svgjs="http://svgjs.com/svgjs" width="1440" height="560" preserveAspectRatio="none" viewBox="0 0 1440 560"><g mask="url(&quot;#SvgjsMask1031&quot;)" fill="none"><rect width="1440" height="560" x="0" y="0" fill="rgba(14, 42, 71, 1)"></rect><path d="M0,365.34C69.224,365.148,137.677,341.819,192.564,299.636C245.063,259.289,273.882,197.767,298.184,136.176C321.435,77.248,330.151,15.972,329.483,-47.373C328.728,-118.964,328.658,-192.124,294.06,-254.804C254.955,-325.649,203.178,-406.504,123.488,-420.563C43.386,-434.695,-20.301,-355.696,-94.97,-323.439C-158.538,-295.977,-233.754,-293.931,-282.798,-245.046C-333.351,-194.657,-358.559,-123.631,-366.581,-52.706C-374.458,16.934,-358.286,86.606,-327.426,149.53C-297.144,211.274,-250.673,262.861,-193.253,300.707C-135.367,338.86,-69.329,365.533,0,365.34" fill="#091b2e"></path><path d="M1440 912.085C1505.451 898.433 1563.908 873.6610000000001 1626.538 850.258 1708.248 819.726 1823.12 830.688 1864.021 753.644 1904.347 677.684 1838.982 587.5 1808.778 506.978 1784.297 441.712 1748.75 384.63 1705.19 330.211 1659.934 273.673 1612.988 220.51 1550.363 184.139 1473.548 139.527 1392.455 87.77699999999999 1304.136 97.291 1210.983 107.32499999999999 1128.06 165.73200000000003 1066.396 236.27100000000002 1004.582 306.98 951.725 397.427 959.973 490.983 967.913 581.047 1066.274 631.4300000000001 1108.292 711.486 1146.995 785.226 1124.4479999999999 897.0260000000001 1195.71 940.1220000000001 1267.297 983.414 1358.104 929.1669999999999 1440 912.085" fill="#133960"></path></g><defs><mask id="SvgjsMask1031"><rect width="1440" height="560" fill="#ffffff"></rect></mask></defs></svg>